<?xml version="1.0" encoding="iso-8859-1"?>
<!-- Generator: Adobe Illustrator 16.0.0, SVG Export Plug-In . SVG Version: 6.00 Build 0)  -->
<!DOCTYPE svg PUBLIC "-//W3C//DTD SVG 1.1//EN" "http://www.w3.org/Graphics/SVG/1.1/DTD/svg11.dtd">
<svg version="1.1" id="&#x30EC;&#x30A4;&#x30E4;&#x30FC;_1"
	 xmlns="http://www.w3.org/2000/svg" xmlns:xlink="http://www.w3.org/1999/xlink" x="0px" y="0px" width="328.728px"
	 height="15.048px" viewBox="0 0 328.728 15.048" style="enable-background:new 0 0 328.728 15.048;" xml:space="preserve">
<g fill="#FFF">
	<path d="M7.844,10.104c0.42,0,1.703-0.036,2.471-0.156l0.036,0.636c-0.827,0.084-1.991,0.12-2.435,0.12H4.81
		c-1.703,0-2.567-0.756-2.567-2.399V1.277l0.923,0.072c-0.024,0.108-0.108,0.18-0.312,0.204v4.018
		C4.81,4.983,7.448,4.012,9.055,3.136L9.547,3.76C9.511,3.784,9.463,3.796,9.403,3.796c-0.048,0-0.108-0.012-0.156-0.036
		C7.688,4.551,4.941,5.559,2.854,6.183v2.146c0,1.284,0.647,1.775,1.919,1.775H7.844z M8.959,0.978
		c0.564,0.492,1.175,1.235,1.523,1.799l-0.36,0.276C9.75,2.5,9.127,1.733,8.599,1.265L8.959,0.978z M10.35,0.198
		c0.576,0.504,1.188,1.235,1.535,1.799l-0.359,0.276c-0.372-0.552-0.996-1.307-1.523-1.775L10.35,0.198z"/>
	<path d="M13.331,4.324c1.092,0.24,2.483,0.695,3.287,1.067l-0.264,0.563c-0.779-0.372-2.219-0.839-3.262-1.08L13.331,4.324z
		 M14.195,10.296c3.91-1.355,6.645-3.514,8.204-7.112c0.144,0.132,0.396,0.3,0.527,0.384c-1.583,3.586-4.401,5.841-8.083,7.16
		c0.036,0.108-0.036,0.24-0.12,0.288L14.195,10.296z M14.615,1.349c1.079,0.276,2.458,0.755,3.25,1.164l-0.276,0.551
		c-0.839-0.432-2.135-0.899-3.214-1.187L14.615,1.349z M20.275,0.941c0.516,0.42,1.211,1.175,1.607,1.763l-0.372,0.288
		c-0.372-0.54-1.067-1.343-1.583-1.775L20.275,0.941z M21.895,0.186c0.504,0.42,1.199,1.176,1.607,1.751l-0.384,0.288
		c-0.359-0.54-1.043-1.307-1.559-1.751L21.895,0.186z"/>
	<path d="M33.475,3.556c-0.036,0.048-0.096,0.083-0.18,0.096c-0.78,0.972-1.799,1.967-2.926,2.831l0.168,0.036
		c-0.024,0.06-0.108,0.156-0.24,0.168v4.618h-0.624v-4.33c-1.271,0.887-2.926,1.763-4.485,2.387
		c-0.06-0.084-0.312-0.408-0.408-0.504c3.106-1.163,5.816-2.986,7.532-4.989h-6.345V3.28h6.908l0.12-0.06L33.475,3.556z
		 M31.736,2.524c-1.067-0.563-2.723-1.104-4.03-1.475l0.276-0.528c1.331,0.324,2.998,0.923,4.09,1.451L31.736,2.524z M31.52,6.554
		c1.199,0.624,2.722,1.571,3.586,2.255l-0.444,0.456c-0.792-0.671-2.363-1.667-3.538-2.267L31.52,6.554z"/>
	<path d="M45.115,1.985c-0.036,0.06-0.072,0.096-0.144,0.108c-0.648,1.511-1.463,2.915-2.459,4.186
		c1.355,1.08,3.406,2.926,4.534,4.186l-0.528,0.443c-1.103-1.259-3.094-3.118-4.401-4.149c-1.032,1.295-2.938,3.154-4.75,4.162
		c-0.096-0.132-0.288-0.348-0.444-0.48c3.43-1.883,6.117-5.469,7.208-8.107h-6.057v-0.6h6.381l0.12-0.048L45.115,1.985z"/>
	<path d="M58.039,2.488v8.06h-0.636V9.876h-7.76v-0.6h7.76V3.088h-7.628v-0.6H58.039z"/>
	<path d="M62.015,8.629c2.675,0.3,5.829,0.996,7.652,1.727l-0.251,0.612c-1.679-0.72-4.917-1.451-7.58-1.763L62.015,8.629z
		 M62.986,4.911c1.955,0.192,4.33,0.6,5.829,1.043l-0.204,0.612c-1.427-0.456-3.826-0.875-5.793-1.067L62.986,4.911z M63.07,1.133
		c2.027,0.228,4.605,0.684,6.272,1.271l-0.228,0.6c-1.644-0.588-4.198-1.056-6.237-1.284L63.07,1.133z"/>
	<path d="M82.063,9.721v0.527h-8.156V9.721h4.954c0.204-1.259,0.552-3.814,0.671-5.097h-4.677V4.096h4.869L79.82,4.06l0.468,0.24
		c-0.012,0.036-0.072,0.084-0.132,0.084C80,5.691,79.616,8.389,79.4,9.721H82.063z"/>
	<path d="M94.854,9.253v0.6h-9.858v-0.6H94.854z M93.69,2.561v0.612h-7.424V2.561H93.69z"/>
	<path d="M106.95,3.736v0.6h-3.13c-0.036,0.06-0.096,0.12-0.216,0.132c-0.336,2.867-1.5,5.301-4.066,6.765
		c-0.132-0.132-0.348-0.288-0.528-0.396c2.531-1.355,3.682-3.646,3.982-6.5H99.43c-0.576,1.02-1.295,1.943-1.955,2.542
		c-0.132-0.12-0.36-0.24-0.54-0.324c1.247-1.067,2.698-3.406,3.298-5.709l0.911,0.216c-0.024,0.084-0.132,0.18-0.312,0.168
		c-0.288,0.84-0.72,1.775-1.091,2.507H106.95z"/>
	<path d="M108.923,5.475h10.015v0.624h-9.583c-0.06,0.12-0.216,0.204-0.36,0.216L108.923,5.475z"/>
	<path d="M121.331,4.275c1.092,0.24,2.483,0.696,3.287,1.067l-0.264,0.564c-0.779-0.372-2.219-0.84-3.262-1.08L121.331,4.275z
		 M122.195,10.248c3.97-1.379,6.632-3.502,8.204-7.112c0.144,0.132,0.396,0.288,0.54,0.384c-1.595,3.598-4.354,5.805-8.107,7.16
		c0.036,0.108-0.036,0.24-0.12,0.288L122.195,10.248z M122.615,1.301c1.079,0.276,2.458,0.755,3.25,1.163l-0.276,0.552
		c-0.839-0.432-2.135-0.899-3.214-1.188L122.615,1.301z"/>
	<path d="M140.839,3.928v7.256h-0.54v-0.54h-5.481v-0.516h5.481V7.466h-5.025V6.95h5.025V4.443h-5.181V3.928H140.839z"/>
	<path d="M145.799,1.829c1.259,0.396,2.711,1.02,3.598,1.655l-0.336,0.528c-0.875-0.624-2.291-1.248-3.538-1.667L145.799,1.829z
		 M145.883,10.212c4.318-1.343,7.172-3.742,8.635-7.076c0.168,0.144,0.372,0.264,0.552,0.348c-1.499,3.286-4.45,5.853-8.539,7.184
		c-0.024,0.096-0.096,0.228-0.156,0.264L145.883,10.212z"/>
	<path d="M157.679,10.884c-0.396-0.852-0.54-2.542-0.54-4.102c0-1.535,0.252-3.598,0.672-5.661l0.912,0.192
		c-0.024,0.108-0.132,0.204-0.312,0.204c-0.432,1.679-0.671,3.886-0.671,5.265c0,0.996,0.012,1.919,0.12,2.398
		c0.3-0.815,0.828-2.027,1.091-2.626l0.456,0.324c-0.408,0.888-1.283,2.794-1.283,3.322c0,0.168,0.048,0.348,0.144,0.588
		L157.679,10.884z M160.666,3.928c1.055,0.012,2.099,0,3.154-0.036c-0.048-1.067-0.084-1.991-0.108-2.878l0.959,0.036
		c0,0.12-0.12,0.216-0.3,0.252c0,0.768,0.036,1.571,0.06,2.542c0.996-0.096,1.799-0.264,2.459-0.504l0.096,0.612
		c-0.587,0.204-1.451,0.384-2.519,0.468c0.048,1.427,0.12,2.926,0.156,3.694c0.924,0.384,1.883,0.996,2.519,1.571l-0.372,0.552
		c-0.528-0.528-1.295-1.08-2.135-1.451c0.024,1.115-0.144,2.291-1.895,2.291c-1.379,0-2.327-0.624-2.327-1.667
		c0-1.199,1.248-1.691,2.327-1.691c0.42,0,0.852,0.072,1.271,0.192l-0.168-3.442c-0.384,0.024-0.923,0.048-1.283,0.048h-1.895V3.928
		z M164.047,8.509c-0.419-0.144-0.863-0.24-1.307-0.24c-0.779,0-1.763,0.276-1.763,1.127c0,0.744,0.792,1.116,1.763,1.116
		c0.983,0,1.332-0.456,1.319-1.559C164.06,8.857,164.06,8.629,164.047,8.509z"/>
	<path d="M178.34,6.878c-0.78,0.084-1.931,0.156-2.986,0.156c-0.06,0.587-0.084,1.007-0.084,1.211c0,2.003,1.211,2.267,2.555,2.267
		c1.787,0,2.974-0.48,2.974-1.739c0-0.647-0.348-1.439-1.02-2.279c0.168-0.06,0.408-0.156,0.552-0.251
		c0.744,0.923,1.116,1.823,1.116,2.603c0,1.955-2.159,2.267-3.61,2.267c-1.02,0-3.178,0-3.178-2.878l0.084-1.223
		c-0.66-0.024-1.247-0.072-1.607-0.156c-0.72-0.192-1.056-0.624-1.056-1.091c0-0.48,0.312-1.02,1.043-1.499l0.444,0.312
		c-0.54,0.348-0.875,0.756-0.875,1.104c0,0.708,1.115,0.731,2.099,0.755c0.096-0.863,0.216-1.895,0.336-2.89
		c-0.899-0.096-1.919-0.348-2.59-0.672l0.192-0.576c0.66,0.324,1.547,0.564,2.47,0.672c0.096-0.78,0.192-1.583,0.276-2.219
		l0.984,0.12c-0.036,0.132-0.168,0.216-0.372,0.216c-0.084,0.54-0.18,1.235-0.264,1.943c0.396,0.036,0.803,0.048,1.223,0.048
		c0.456,0,0.912-0.012,1.343-0.048l-0.024,0.587c-0.384,0.024-0.815,0.048-1.235,0.048c-0.468,0-0.947-0.024-1.391-0.06
		c-0.12,0.959-0.24,1.967-0.336,2.842c0.996,0,2.111-0.06,2.915-0.168L178.34,6.878z"/>
	<path d="M184.607,5.247c0.204-0.048,0.647-0.18,1.031-0.288c1.655-0.516,3.311-0.887,4.318-0.887
		c1.631-0.012,3.07,0.852,3.07,2.806c0,2.591-2.675,3.562-5.769,3.814c-0.036-0.132-0.12-0.42-0.168-0.54
		c2.794-0.204,5.325-1.043,5.325-3.25c0-1.595-1.151-2.291-2.482-2.291c-0.959,0.012-2.591,0.384-4.126,0.899
		c-0.3,0.084-0.6,0.204-0.779,0.264c-0.024,0.084-0.084,0.156-0.168,0.192L184.607,5.247z"/>
	<path d="M204.63,4.54c-0.024,0.012-0.06,0.012-0.096,0.012c-0.084,0-0.168-0.024-0.24-0.072c-3.55,1.079-6.957,2.734-6.957,4.461
		c0,1.248,1.416,1.655,3.49,1.655c1.451-0.012,3.046-0.096,4.186-0.264l0.048,0.636c-1.14,0.156-2.735,0.216-4.222,0.216
		c-2.399,0-4.126-0.528-4.138-2.207c0-1.295,1.331-2.447,3.25-3.418c-0.384-0.671-0.552-2.099-0.54-4.845l1.031,0.096
		c-0.024,0.132-0.132,0.24-0.372,0.264c0,2.255,0.084,3.586,0.456,4.209c1.151-0.551,2.495-1.055,3.862-1.487L204.63,4.54z"/>
	<path d="M207.792,8.365c0.912,0.731,2.087,1.907,2.758,2.687l-0.528,0.492c-0.624-0.792-1.859-2.027-2.698-2.747L207.792,8.365z"/>
	<path d="M224.035,1.985c-0.036,0.06-0.072,0.096-0.144,0.108c-0.648,1.511-1.463,2.915-2.459,4.186
		c1.355,1.08,3.406,2.926,4.534,4.186l-0.528,0.443c-1.103-1.259-3.094-3.118-4.401-4.149c-1.032,1.295-2.938,3.154-4.75,4.162
		c-0.096-0.132-0.288-0.348-0.444-0.48c3.43-1.883,6.117-5.469,7.208-8.107h-6.057v-0.6h6.381l0.12-0.048L224.035,1.985z"/>
	<path d="M238.026,2.68c-0.036,0.048-0.084,0.084-0.168,0.096c-1.151,1.775-3.07,3.574-4.989,4.929
		c1.007,0.815,1.931,1.763,2.579,2.471l-0.528,0.456c-1.235-1.451-3.67-3.514-5.781-4.761l0.42-0.444
		c0.899,0.528,1.907,1.188,2.818,1.907c1.751-1.235,3.526-2.878,4.558-4.414h-9.163v-0.6h9.606l0.12-0.06L238.026,2.68z"/>
	<path d="M239.843,5.475h10.015v0.624h-9.583c-0.06,0.12-0.216,0.204-0.36,0.216L239.843,5.475z"/>
	<path d="M260.299,7.046c-1.295-0.684-3.022-1.475-4.366-2.003v6.141h-0.647V0.797l0.947,0.06c-0.012,0.12-0.108,0.192-0.3,0.228
		v3.562l0.132-0.216c1.439,0.54,3.311,1.379,4.582,2.051L260.299,7.046z"/>
	<path d="M265.87,1.325c-0.036,0.12-0.132,0.204-0.408,0.18c-0.396,1.907-0.624,4.054-0.624,5.457c0,0.972,0.048,1.991,0.18,2.603
		c0.252-0.671,0.78-2.003,0.959-2.446l0.432,0.335c-0.516,1.332-0.864,2.027-1.032,2.543c-0.06,0.204-0.096,0.384-0.096,0.551
		c0,0.132,0.024,0.252,0.06,0.372l-0.612,0.132c-0.396-1.139-0.516-2.471-0.516-4.078c0-1.535,0.24-3.718,0.66-5.829L265.87,1.325z
		 M273.678,10.032c-0.408,0.024-0.84,0.036-1.248,0.036c-0.899,0-1.763-0.048-2.351-0.144c-1.403-0.204-2.099-0.995-2.099-1.943
		c0-0.804,0.468-1.475,1.151-2.279l0.564,0.276c-0.636,0.66-1.08,1.248-1.08,1.955c0,0.66,0.54,1.247,1.619,1.415
		c0.48,0.072,1.175,0.12,1.931,0.12c0.492,0,1.007-0.024,1.499-0.06L273.678,10.032z M268.089,2.848
		c1.607-0.036,3.634-0.168,5.277-0.456l0.072,0.624c-1.523,0.264-3.958,0.42-5.325,0.456L268.089,2.848z"/>
	<path d="M286.421,7.766v0.54h-2.938v3.238h-0.588V8.305h-3.994c-0.12,1.224-0.696,2.423-2.975,3.274
		c-0.072-0.144-0.24-0.36-0.36-0.456c2.075-0.755,2.615-1.787,2.747-2.818h-2.902v-0.54h2.938V6.446
		c-0.815,0.132-1.679,0.252-2.483,0.336c-0.024-0.12-0.096-0.324-0.18-0.456c1.799-0.216,3.934-0.563,5.049-0.971l0.563,0.444
		c-0.024,0.036-0.06,0.048-0.12,0.048c-0.024,0-0.048,0-0.084-0.012c-0.564,0.18-1.332,0.36-2.171,0.504v1.427h3.97V5.439
		l0.804,0.06c-0.012,0.072-0.072,0.132-0.216,0.144v2.123H286.421z M284.875,1.049v4.054h-7.904V1.049H284.875z M284.275,2.813
		V1.565h-6.729v1.248H284.275z M284.275,4.587V3.316h-6.729v1.271H284.275z"/>
	<path d="M298.35,5.979h-2.243v1.499h1.727v0.528h-4.666v1.259h5.073v0.54h-5.073v1.775h-0.576V9.805h-4.965v-0.54h4.965V8.005
		h-4.474V7.478h1.643V5.979h-2.254V5.451h2.254V3.976h-1.439V3.448h9.271v0.528h-1.487v1.475h2.243V5.979z M290.494,3.064V2.177
		h-2.891v-0.54h2.891V0.461l0.779,0.06c-0.012,0.072-0.06,0.132-0.204,0.144v0.972h3.622V0.461l0.78,0.06
		c-0.012,0.072-0.072,0.132-0.204,0.144v0.972h2.998v0.54h-2.998v0.887h-0.576V2.177h-3.622v0.887H290.494z M290.314,3.976v1.475
		h2.279V3.976H290.314z M290.314,7.478h2.279V5.979h-2.279V7.478z M295.543,5.451V3.976h-2.375v1.475H295.543z M295.543,7.478V5.979
		h-2.375v1.499H295.543z"/>
	<path d="M299.771,2.68c1.559-0.048,4.246-0.12,5.697-0.18c-0.012-0.3-0.06-1.763-0.072-1.931l0.983,0.036
		c-0.012,0.108-0.096,0.204-0.324,0.24c0,0.372,0.024,1.043,0.048,1.643c1.439-0.048,2.962-0.083,3.946-0.096v0.612
		c-1.067-0.012-2.519,0.012-3.934,0.06c0.012,0.528,0.012,1.032,0.036,1.368c0.012,0.408,0.036,0.803,0.048,1.211
		c0.072,0.204,0.144,0.528,0.144,1.235c0,1.727-0.647,3.442-3.562,4.618c-0.108-0.144-0.3-0.36-0.432-0.492
		c2.027-0.744,3.022-1.859,3.262-3.143H305.6c-0.276,0.444-0.779,0.768-1.439,0.768c-1.067,0-1.967-0.875-1.967-2.063
		c0-1.235,0.995-2.207,2.111-2.207c0.492,0,0.995,0.168,1.235,0.432c0-0.06-0.012-0.12-0.012-0.167
		c-0.024-0.252-0.024-0.9-0.036-1.535c-1.871,0.036-4.629,0.132-5.709,0.192L299.771,2.68z M305.684,6.602
		c0-1.223-0.468-1.691-1.331-1.691c-0.923,0-1.571,0.731-1.571,1.667c0,0.912,0.684,1.511,1.451,1.511
		C305.168,8.089,305.684,7.334,305.684,6.602z"/>
	<path d="M315.129,5.811c0.84-0.444,2.195-0.768,3.214-0.768c1.943,0,3.118,1.104,3.118,2.831c0,2.171-1.919,3.37-4.246,3.37
		c-1.571,0-2.626-0.6-2.626-1.607c0-0.864,0.84-1.547,1.919-1.547c1.367,0,2.267,1.164,2.435,2.267
		c1.104-0.396,1.883-1.235,1.883-2.47c0-1.392-0.984-2.279-2.603-2.279c-1.859,0-3.718,0.852-4.486,1.607
		c-0.372,0.36-0.839,0.864-1.163,1.259l-0.456-0.456c1.151-1.224,4.726-4.654,6.356-6.189c-0.719,0.108-3.238,0.192-4.749,0.252
		c-0.024,0.072-0.132,0.156-0.228,0.18l-0.096-0.804c1.655-0.012,4.654-0.12,5.553-0.252l0.168-0.084l0.54,0.612
		c-0.072,0.06-0.168,0.096-0.276,0.12c-0.923,0.768-3.334,3.058-4.258,3.946V5.811z M317.156,10.68c0.396,0,0.84-0.06,1.2-0.156
		c-0.132-1.007-0.875-1.895-1.895-1.895c-0.696,0-1.332,0.372-1.332,0.996C315.129,10.416,316.233,10.68,317.156,10.68z"/>
	<path d="M326.734,9.864c0,0.924-0.756,1.679-1.679,1.679s-1.679-0.755-1.679-1.679c0-0.923,0.756-1.679,1.679-1.679
		C326.002,8.186,326.734,8.965,326.734,9.864z M326.326,9.864c0-0.708-0.564-1.271-1.271-1.271c-0.72,0-1.283,0.563-1.283,1.271
		c0,0.72,0.563,1.284,1.283,1.284C325.786,11.148,326.326,10.56,326.326,9.864z"/>
</g>
</svg>
