<?xml version="1.0" encoding="iso-8859-1"?>
<!-- Generator: Adobe Illustrator 16.0.0, SVG Export Plug-In . SVG Version: 6.00 Build 0)  -->
<!DOCTYPE svg PUBLIC "-//W3C//DTD SVG 1.1//EN" "http://www.w3.org/Graphics/SVG/1.1/DTD/svg11.dtd">
<svg version="1.1" xmlns="http://www.w3.org/2000/svg" xmlns:xlink="http://www.w3.org/1999/xlink" x="0px" y="0px"
	 width="237.692px" height="237.693px" viewBox="0 0 237.692 237.693" style="enable-background:new 0 0 237.692 237.693;"
	 xml:space="preserve">
<g id="&#x30EC;&#x30A4;&#x30E4;&#x30FC;_2">
</g>
<g id="&#x30EC;&#x30A4;&#x30E4;&#x30FC;_1">
	<g>
		<path d="M223.192,0H14.5C6.505,0,0,6.505,0,14.5v208.693c0,7.995,6.505,14.5,14.5,14.5h223.192V14.5
			C237.692,6.505,231.188,0,223.192,0z M223.192,5c5.238,0,9.5,4.262,9.5,9.5v87.154H121.5V5H223.192z M116.5,232.693h-102
			c-5.238,0-9.5-4.262-9.5-9.5V14.5C5,9.262,9.262,5,14.5,5h102V232.693z M156.185,232.693H121.5v-24.539h34.685V232.693z
			 M156.185,206.154H121.5v-27.5h34.685V206.154z M156.185,176.654H121.5v-27.5h34.685V176.654z M156.185,147.154H121.5v-25.085
			h34.685V147.154z M194.375,232.693h-36.19v-24.539h36.19V232.693z M194.375,206.154h-36.19v-27.5h36.19V206.154z M194.375,176.654
			h-36.19v-27.5h36.19V176.654z M194.375,147.154h-36.19v-25.085h36.19V147.154z M232.692,232.693h-36.318v-24.539h36.318V232.693z
			 M232.692,206.154h-36.318v-27.5h36.318V206.154z M232.692,176.654h-36.318v-27.5h36.318V176.654z M196.375,122.068h36.318v25.085
			h-36.318"/>
	</g>
</g>
</svg>
