<?xml version="1.0" encoding="iso-8859-1"?>
<!-- Generator: Adobe Illustrator 16.0.0, SVG Export Plug-In . SVG Version: 6.00 Build 0)  -->
<!DOCTYPE svg PUBLIC "-//W3C//DTD SVG 1.1//EN" "http://www.w3.org/Graphics/SVG/1.1/DTD/svg11.dtd">
<svg version="1.1" xmlns="http://www.w3.org/2000/svg" xmlns:xlink="http://www.w3.org/1999/xlink" x="0px" y="0px" width="879px"
	 height="237.654px" viewBox="0 0 879 237.654" style="enable-background:new 0 0 879 237.654;" xml:space="preserve">
<g fill="#FFF" id="&#x30EC;&#x30A4;&#x30E4;&#x30FC;_2">
</g>
<g fill="#FFF" id="&#x30EC;&#x30A4;&#x30E4;&#x30FC;_1">
	<g>
		<path d="M286.178,161.331v-40.156h4.399v40.156H286.178z"/>
		<path d="M335.99,158.84l-27.627-32.563c-0.7-0.812-1.68-1.161-2.725-1.161c-1.79,0-3.649,1.1-3.704,3.128v33.086h-4.404v-33.492
			l0.058-0.171c0.299-4.405,4.284-7.014,8.17-7.014c2.259,0,4.517,0.871,6.021,2.839l27.631,32.569
			c0.693,0.811,1.735,1.214,2.724,1.214c1.732,0,3.469-1.161,3.648-3.188v-33.026h4.459v33.434c-0.52,4.344-4.228,7.243-8.165,7.243
			c-1.103,0-2.255-0.231-3.359-0.753C337.673,160.521,337.035,160.116,335.99,158.84z"/>
		<path d="M409.395,125.579h-22.881v35.752h-4.403v-35.752h-22.88v-4.404h50.164V125.579z"/>
		<path d="M420.758,137.632v1.45h45.934v4.403h-45.934v1.508c0,6.545,5.508,11.935,12.047,11.935h33.887v4.403h-33.887
			c-9.088,0-16.449-7.471-16.449-16.456v-7.244c0-9.099,7.471-16.457,16.449-16.457h33.887v4.404h-33.887
			c-3.297,0-6.313,1.334-8.515,3.537C422.087,131.318,420.758,134.33,420.758,137.632z"/>
		<path d="M479.678,121.175v23.643c0,3.361,1.337,6.374,3.537,8.519c2.195,2.203,5.21,3.591,8.509,3.591h33.828v4.403h-33.828
			c-4.517,0-8.63-1.853-11.639-4.866c-2.956-2.956-4.808-7.069-4.808-11.647v-23.643H479.678z"/>
		<path d="M536.98,161.331h-4.467v-40.156h42.166c6.664,0,12.634,5.622,12.634,12.287c0,6.838-6.143,12.285-12.918,12.285H536.98
			V161.331z M574.511,141.344c4.458,0,8.281-3.534,8.398-7.882c-0.117-4.405-4.001-7.883-8.514-7.883H536.98v15.765H574.511z"/>
		<path d="M643.511,121.175v40.156h-4.463V141.92h-40.371v19.411h-4.402v-40.156h4.402v16.343h40.371v-16.343H643.511z"/>
		<path d="M666.92,161.331c-9.095,0-16.445-7.356-16.445-16.456v-7.244c0-9.038,7.351-16.457,16.445-16.457h29.777
			c9.092,0,16.504,7.419,16.504,16.457v7.244c0,9.1-7.412,16.456-16.504,16.456H666.92z M654.877,144.875
			c0,6.608,5.443,12.052,12.043,12.052h29.777c6.655,0,12.1-5.444,12.1-12.052v-7.244c0-6.602-5.444-12.053-12.1-12.053H666.92
			c-6.6,0-12.043,5.451-12.043,12.053V144.875z"/>
		<path d="M758.633,158.84l-27.629-32.563c-0.693-0.812-1.682-1.161-2.725-1.161c-1.795,0-3.648,1.1-3.707,3.128v33.086h-4.404
			v-33.492l0.059-0.171c0.294-4.405,4.288-7.014,8.169-7.014c2.259,0,4.512,0.871,6.022,2.839l27.632,32.569
			c0.696,0.811,1.738,1.214,2.718,1.214c1.738,0,3.479-1.161,3.654-3.188v-33.026h4.458v33.434c-0.52,4.344-4.229,7.243-8.166,7.243
			c-1.102,0-2.259-0.231-3.362-0.753C760.31,160.521,759.676,160.116,758.633,158.84z"/>
		<path d="M786.272,137.632v1.45h45.933v4.403h-45.933v1.508c0,6.545,5.506,11.935,12.052,11.935h33.881v4.403h-33.881
			c-9.092,0-16.454-7.471-16.454-16.456v-7.244c0-9.099,7.471-16.457,16.454-16.457h33.881v4.404h-33.881
			c-3.305,0-6.317,1.334-8.516,3.537C787.603,131.318,786.272,134.33,786.272,137.632z"/>
	</g>
	<g>
		<path d="M223.692,0H15C7.005,0,0.5,6.505,0.5,14.5v208.693c0,7.995,6.505,14.5,14.5,14.5h223.192V14.5
			C238.192,6.505,231.688,0,223.692,0z M223.692,5c5.238,0,9.5,4.262,9.5,9.5v87.154H122V5H223.692z M117,232.693H15
			c-5.238,0-9.5-4.262-9.5-9.5V14.5C5.5,9.262,9.762,5,15,5h102V232.693z M156.685,232.693H122v-24.539h34.685V232.693z
			 M156.685,206.154H122v-27.5h34.685V206.154z M156.685,176.654H122v-27.5h34.685V176.654z M156.685,147.154H122v-25.085h34.685
			V147.154z M194.875,232.693h-36.19v-24.539h36.19V232.693z M194.875,206.154h-36.19v-27.5h36.19V206.154z M194.875,176.654h-36.19
			v-27.5h36.19V176.654z M194.875,147.154h-36.19v-25.085h36.19V147.154z M233.192,232.693h-36.318v-24.539h36.318V232.693z
			 M233.192,206.154h-36.318v-27.5h36.318V206.154z M233.192,176.654h-36.318v-27.5h36.318V176.654z M196.875,122.068h36.318v25.085
			h-36.318"/>
	</g>
	<g>
		<path d="M295.83,100.148c0.704,0,2.865-0.059,4.157-0.264l0.059,1.071c-1.393,0.143-3.35,0.203-4.096,0.203h-5.226
			c-2.867,0-4.321-1.274-4.321-4.036V85.294l1.555,0.123c-0.039,0.181-0.181,0.301-0.522,0.342v6.761
			c3.289-0.988,7.726-2.624,10.433-4.098l0.827,1.05c-0.062,0.041-0.141,0.062-0.243,0.062c-0.081,0-0.18-0.021-0.26-0.062
			c-2.626,1.332-7.248,3.028-10.757,4.079v3.611c0,2.159,1.088,2.986,3.228,2.986H295.83z M297.706,84.79
			c0.947,0.827,1.978,2.077,2.563,3.029l-0.604,0.462c-0.628-0.929-1.674-2.221-2.562-3.008L297.706,84.79z M300.046,83.478
			c0.969,0.849,1.996,2.078,2.584,3.027l-0.604,0.464c-0.624-0.929-1.676-2.2-2.564-2.987L300.046,83.478z"/>
		<path d="M305.064,90.421c1.836,0.403,4.177,1.17,5.53,1.798l-0.447,0.946c-1.311-0.625-3.733-1.413-5.485-1.816L305.064,90.421z
			 M306.518,100.473c6.577-2.28,11.181-5.915,13.802-11.968c0.242,0.22,0.667,0.503,0.89,0.646
			c-2.662,6.033-7.405,9.829-13.602,12.048c0.062,0.183-0.062,0.404-0.202,0.484L306.518,100.473z M307.224,85.417
			c1.813,0.462,4.138,1.271,5.472,1.956l-0.468,0.929c-1.409-0.727-3.591-1.514-5.406-1.999L307.224,85.417z M316.747,84.729
			c0.866,0.707,2.041,1.979,2.704,2.967l-0.622,0.483c-0.63-0.906-1.798-2.259-2.665-2.986L316.747,84.729z M319.473,83.457
			c0.847,0.706,2.019,1.979,2.705,2.947l-0.649,0.484c-0.601-0.908-1.755-2.2-2.621-2.946L319.473,83.457z"/>
		<path d="M338.963,89.13c-0.063,0.079-0.165,0.141-0.309,0.162c-1.307,1.633-3.025,3.308-4.921,4.762l0.282,0.059
			c-0.043,0.102-0.183,0.264-0.401,0.283v7.771h-1.052v-7.286c-2.14,1.493-4.925,2.965-7.548,4.016
			c-0.102-0.14-0.527-0.687-0.689-0.847c5.23-1.956,9.79-5.025,12.675-8.397h-10.671v-0.989h11.621l0.201-0.102L338.963,89.13z
			 M336.032,87.392c-1.798-0.946-4.58-1.857-6.779-2.481l0.464-0.888c2.24,0.544,5.045,1.553,6.881,2.443L336.032,87.392z
			 M335.668,94.175c2.018,1.048,4.581,2.645,6.036,3.795l-0.747,0.768c-1.331-1.13-3.976-2.805-5.955-3.815L335.668,94.175z"/>
		<path d="M358.548,86.486c-0.062,0.099-0.123,0.16-0.245,0.18c-1.089,2.543-2.459,4.905-4.139,7.045
			c2.284,1.815,5.733,4.923,7.633,7.043l-0.892,0.745c-1.854-2.118-5.206-5.248-7.404-6.981c-1.736,2.179-4.945,5.309-7.992,7.002
			c-0.161-0.219-0.486-0.584-0.745-0.806c5.771-3.168,10.291-9.205,12.127-13.645h-10.194v-1.009h10.739l0.201-0.08L358.548,86.486z
			"/>
		<path d="M380.29,87.332v13.564h-1.069v-1.129h-13.057v-1.009h13.057V88.344h-12.832v-1.012H380.29z"/>
		<path d="M386.985,97.667c4.496,0.505,9.807,1.673,12.876,2.906l-0.426,1.03c-2.823-1.212-8.273-2.443-12.758-2.968L386.985,97.667
			z M388.618,91.41c3.293,0.322,7.287,1.009,9.804,1.755l-0.338,1.031c-2.401-0.769-6.438-1.472-9.752-1.796L388.618,91.41z
			 M388.761,85.052c3.411,0.384,7.748,1.152,10.555,2.141l-0.385,1.007c-2.763-0.988-7.061-1.776-10.495-2.16L388.761,85.052z"/>
		<path d="M420.72,99.504v0.886h-13.725v-0.886h8.334c0.343-2.119,0.928-6.42,1.131-8.579h-7.871v-0.889h8.19l0.165-0.061
			l0.786,0.405c-0.018,0.06-0.116,0.14-0.221,0.14c-0.263,2.203-0.908,6.743-1.272,8.984H420.72z"/>
		<path d="M442.243,98.718v1.008h-16.586v-1.008H442.243z M440.286,87.454v1.029h-12.493v-1.029H440.286z"/>
		<path d="M462.599,89.433v1.008h-5.268c-0.063,0.101-0.164,0.203-0.364,0.223c-0.566,4.824-2.522,8.921-6.841,11.384
			c-0.224-0.223-0.587-0.485-0.89-0.666c4.261-2.282,6.196-6.137,6.701-10.941h-5.998c-0.964,1.717-2.176,3.271-3.284,4.279
			c-0.224-0.201-0.609-0.403-0.911-0.545c2.1-1.797,4.542-5.734,5.55-9.607l1.531,0.363c-0.038,0.142-0.22,0.302-0.519,0.282
			c-0.49,1.414-1.212,2.988-1.843,4.22H462.599z"/>
		<path d="M465.918,92.358h16.852v1.049h-16.127c-0.098,0.201-0.364,0.343-0.602,0.364L465.918,92.358z"/>
		<path d="M486.798,90.341c1.837,0.403,4.176,1.169,5.527,1.797l-0.443,0.946c-1.312-0.624-3.732-1.411-5.49-1.815L486.798,90.341z
			 M488.248,100.391c6.68-2.319,11.159-5.893,13.803-11.969c0.248,0.223,0.668,0.485,0.909,0.647
			c-2.681,6.056-7.324,9.768-13.643,12.05c0.062,0.183-0.059,0.402-0.2,0.484L488.248,100.391z M488.957,85.335
			c1.816,0.463,4.133,1.27,5.469,1.958l-0.464,0.927c-1.413-0.727-3.595-1.513-5.412-1.997L488.957,85.335z"/>
		<path d="M519.623,89.754v12.212h-0.911v-0.908h-9.221v-0.869h9.221v-4.481h-8.452v-0.867h8.452v-4.219h-8.716v-0.869H519.623z"/>
		<path d="M527.967,86.224c2.121,0.664,4.562,1.712,6.056,2.784l-0.563,0.888c-1.476-1.048-3.855-2.097-5.952-2.805L527.967,86.224z
			 M528.11,100.332c7.264-2.26,12.066-6.299,14.526-11.91c0.286,0.243,0.628,0.445,0.935,0.586c-2.528,5.53-7.492,9.85-14.371,12.09
			c-0.039,0.162-0.161,0.383-0.267,0.443L528.11,100.332z"/>
		<path d="M547.959,101.461c-0.667-1.432-0.909-4.279-0.909-6.903c0-2.583,0.423-6.054,1.132-9.527l1.536,0.324
			c-0.043,0.18-0.221,0.344-0.528,0.344c-0.726,2.825-1.131,6.539-1.131,8.859c0,1.675,0.019,3.23,0.203,4.037
			c0.505-1.373,1.392-3.412,1.834-4.42l0.772,0.545c-0.69,1.494-2.16,4.703-2.16,5.592c0,0.281,0.08,0.584,0.243,0.989
			L547.959,101.461z M552.986,89.754c1.775,0.021,3.529,0,5.31-0.06c-0.085-1.798-0.144-3.352-0.184-4.843l1.615,0.06
			c0,0.204-0.206,0.362-0.508,0.424c0,1.292,0.06,2.644,0.103,4.278c1.674-0.162,3.028-0.443,4.138-0.846l0.162,1.028
			c-0.991,0.343-2.444,0.645-4.241,0.788c0.081,2.401,0.204,4.922,0.262,6.214c1.556,0.647,3.17,1.677,4.241,2.645l-0.63,0.929
			c-0.883-0.888-2.18-1.819-3.592-2.441c0.044,1.877-0.24,3.854-3.185,3.854c-2.323,0-3.918-1.05-3.918-2.805
			c0-2.02,2.098-2.847,3.918-2.847c0.706,0,1.429,0.12,2.139,0.325l-0.282-5.794c-0.646,0.039-1.558,0.081-2.159,0.081h-3.188
			V89.754z M558.676,97.464c-0.706-0.242-1.452-0.404-2.198-0.404c-1.313,0-2.969,0.466-2.969,1.898
			c0,1.251,1.333,1.877,2.969,1.877c1.653,0,2.24-0.766,2.219-2.625C558.696,98.051,558.696,97.667,558.676,97.464z"/>
		<path d="M582.726,94.72c-1.309,0.143-3.253,0.263-5.024,0.263c-0.103,0.988-0.145,1.693-0.145,2.038
			c0,3.37,2.038,3.816,4.301,3.816c3.007,0,5.006-0.808,5.006-2.927c0-1.09-0.584-2.423-1.714-3.835
			c0.279-0.102,0.684-0.261,0.922-0.423c1.256,1.553,1.882,3.068,1.882,4.379c0,3.291-3.635,3.816-6.077,3.816
			c-1.715,0-5.347,0-5.347-4.844l0.143-2.06c-1.108-0.039-2.099-0.121-2.703-0.262c-1.214-0.322-1.779-1.05-1.779-1.837
			c0-0.807,0.525-1.713,1.76-2.521l0.74,0.523c-0.903,0.587-1.469,1.271-1.469,1.857c0,1.189,1.879,1.23,3.531,1.271
			c0.162-1.453,0.363-3.189,0.563-4.865c-1.514-0.161-3.228-0.583-4.355-1.128l0.319-0.968c1.107,0.545,2.604,0.948,4.157,1.128
			c0.162-1.312,0.325-2.663,0.462-3.732l1.658,0.205c-0.063,0.219-0.281,0.36-0.629,0.36c-0.138,0.908-0.301,2.079-0.441,3.271
			c0.665,0.059,1.354,0.081,2.057,0.081c0.77,0,1.536-0.021,2.261-0.081l-0.04,0.987c-0.646,0.042-1.368,0.083-2.077,0.083
			c-0.786,0-1.593-0.041-2.339-0.103c-0.204,1.615-0.405,3.31-0.565,4.784c1.672,0,3.55-0.103,4.9-0.282L582.726,94.72z"/>
		<path d="M593.271,91.976c0.342-0.081,1.088-0.302,1.734-0.486c2.787-0.867,5.57-1.495,7.268-1.495
			c2.744-0.019,5.165,1.436,5.165,4.725c0,4.359-4.499,5.995-9.705,6.419c-0.063-0.223-0.205-0.708-0.282-0.908
			c4.699-0.346,8.957-1.755,8.957-5.469c0-2.685-1.936-3.855-4.174-3.855c-1.614,0.02-4.361,0.646-6.943,1.513
			c-0.506,0.141-1.01,0.344-1.314,0.444c-0.04,0.143-0.142,0.262-0.28,0.325L593.271,91.976z"/>
		<path d="M626.965,90.783c-0.04,0.021-0.1,0.021-0.159,0.021c-0.146,0-0.284-0.04-0.406-0.121
			c-5.974,1.817-11.703,4.603-11.703,7.51c0,2.099,2.377,2.783,5.872,2.783c2.438-0.02,5.124-0.16,7.042-0.442l0.082,1.069
			c-1.916,0.263-4.602,0.363-7.104,0.363c-4.041,0-6.942-0.888-6.963-3.714c0-2.179,2.241-4.118,5.47-5.752
			c-0.647-1.13-0.928-3.534-0.907-8.153l1.735,0.16c-0.043,0.222-0.228,0.404-0.625,0.444c0,3.795,0.141,6.035,0.764,7.084
			c1.936-0.927,4.198-1.776,6.499-2.501L626.965,90.783z"/>
		<path d="M632.282,97.222c1.536,1.232,3.514,3.208,4.644,4.521l-0.893,0.828c-1.05-1.333-3.127-3.41-4.538-4.62L632.282,97.222z"/>
		<path d="M659.618,86.486c-0.06,0.099-0.121,0.16-0.243,0.18c-1.088,2.543-2.462,4.905-4.137,7.045
			c2.279,1.815,5.729,4.923,7.627,7.043l-0.886,0.745c-1.857-2.118-5.211-5.248-7.408-6.981c-1.738,2.179-4.946,5.309-7.992,7.002
			c-0.16-0.219-0.483-0.584-0.746-0.806c5.771-3.168,10.295-9.205,12.126-13.645h-10.188v-1.009h10.736l0.199-0.08L659.618,86.486z"
			/>
		<path d="M683.159,87.655c-0.06,0.083-0.14,0.144-0.283,0.164c-1.935,2.985-5.166,6.014-8.394,8.294
			c1.695,1.37,3.25,2.965,4.34,4.159l-0.889,0.765c-2.081-2.442-6.175-5.913-9.728-8.012l0.706-0.749c1.515,0.889,3.207,2,4.74,3.21
			c2.951-2.079,5.933-4.843,7.672-7.426h-15.42v-1.01h16.165l0.203-0.101L683.159,87.655z"/>
		<path d="M686.219,92.358h16.852v1.049h-16.126c-0.101,0.201-0.364,0.343-0.604,0.364L686.219,92.358z"/>
		<path d="M720.639,95.002c-2.18-1.15-5.086-2.483-7.347-3.371v10.334h-1.089V84.486l1.594,0.103
			c-0.019,0.201-0.185,0.322-0.505,0.382v5.994l0.223-0.362c2.422,0.907,5.568,2.321,7.709,3.452L720.639,95.002z"/>
		<path d="M730.015,85.376c-0.059,0.199-0.224,0.341-0.689,0.302c-0.666,3.21-1.048,6.821-1.048,9.184
			c0,1.634,0.084,3.349,0.301,4.379c0.428-1.131,1.317-3.371,1.617-4.117l0.728,0.564c-0.866,2.242-1.45,3.411-1.737,4.28
			c-0.104,0.344-0.162,0.646-0.162,0.928c0,0.223,0.039,0.425,0.1,0.625l-1.028,0.222c-0.667-1.915-0.867-4.158-0.867-6.861
			c0-2.584,0.402-6.257,1.112-9.81L730.015,85.376z M743.152,100.029c-0.688,0.042-1.413,0.061-2.101,0.061
			c-1.51,0-2.969-0.08-3.957-0.243c-2.354-0.342-3.53-1.674-3.53-3.269c0-1.354,0.79-2.482,1.936-3.834l0.951,0.464
			c-1.068,1.11-1.813,2.1-1.813,3.29c0,1.11,0.905,2.099,2.722,2.381c0.806,0.123,1.977,0.201,3.251,0.201
			c0.826,0,1.695-0.039,2.522-0.099L743.152,100.029z M733.748,87.937c2.703-0.058,6.113-0.282,8.878-0.765l0.125,1.049
			c-2.565,0.444-6.664,0.707-8.966,0.767L733.748,87.937z"/>
		<path d="M764.595,96.214v0.909h-4.945v5.447h-0.987v-5.447h-6.719c-0.204,2.058-1.171,4.076-5.006,5.509
			c-0.121-0.241-0.401-0.606-0.606-0.766c3.492-1.273,4.4-3.008,4.625-4.743h-4.887v-0.909h4.944v-2.22
			c-1.37,0.222-2.826,0.422-4.179,0.564c-0.039-0.201-0.16-0.545-0.299-0.767c3.024-0.365,6.619-0.95,8.494-1.634l0.95,0.746
			c-0.045,0.061-0.104,0.082-0.202,0.082c-0.042,0-0.08,0-0.143-0.021c-0.946,0.305-2.24,0.606-3.654,0.849v2.401h6.681v-3.916
			l1.351,0.102c-0.016,0.12-0.122,0.221-0.363,0.241v3.573H764.595z M761.992,84.911v6.821h-13.299v-6.821H761.992z M760.984,87.878
			v-2.1h-11.319v2.1H760.984z M760.984,90.866v-2.142h-11.319v2.142H760.984z"/>
		<path d="M784.666,93.207h-3.772v2.521h2.907v0.89h-7.854v2.12h8.541v0.907h-8.541v2.988h-0.967v-2.988h-8.357v-0.907h8.357v-2.12
			h-7.528v-0.89h2.767v-2.521h-3.798v-0.889h3.798v-2.481h-2.425v-0.89h15.603v0.89h-2.503v2.481h3.772V93.207z M771.447,88.301
			v-1.495h-4.864V85.9h4.864v-1.979l1.314,0.101c-0.021,0.12-0.104,0.221-0.345,0.242V85.9h6.096v-1.979l1.311,0.101
			c-0.021,0.12-0.119,0.221-0.343,0.242V85.9h5.046v0.906h-5.046v1.495h-0.968v-1.495h-6.096v1.495H771.447z M771.147,89.837v2.481
			h3.833v-2.481H771.147z M771.147,95.728h3.833v-2.521h-3.833V95.728z M779.944,92.318v-2.481h-3.997v2.481H779.944z
			 M779.944,95.728v-2.521h-3.997v2.521H779.944z"/>
		<path d="M787.06,87.655c2.624-0.08,7.146-0.201,9.59-0.303c-0.02-0.504-0.105-2.966-0.126-3.249l1.654,0.06
			c-0.022,0.184-0.157,0.344-0.545,0.404c0,0.626,0.044,1.755,0.083,2.765c2.423-0.079,4.982-0.139,6.642-0.16V88.2
			c-1.799-0.021-4.24,0.021-6.618,0.101c0.02,0.888,0.02,1.736,0.058,2.302c0.019,0.687,0.06,1.352,0.079,2.038
			c0.122,0.344,0.241,0.888,0.241,2.079c0,2.908-1.087,5.794-5.991,7.771c-0.183-0.243-0.504-0.605-0.729-0.827
			c3.413-1.253,5.089-3.13,5.49-5.289h-0.021c-0.462,0.748-1.31,1.292-2.421,1.292c-1.795,0-3.307-1.474-3.307-3.472
			c0-2.08,1.672-3.713,3.549-3.713c0.828,0,1.676,0.282,2.079,0.725c0-0.1-0.021-0.201-0.021-0.282
			c-0.041-0.423-0.041-1.513-0.06-2.582c-3.15,0.058-7.789,0.219-9.605,0.32L787.06,87.655z M797.008,94.256
			c0-2.057-0.787-2.846-2.238-2.846c-1.552,0-2.644,1.231-2.644,2.805c0,1.533,1.149,2.543,2.439,2.543
			C796.141,96.758,797.008,95.487,797.008,94.256z"/>
		<path d="M812.902,92.924c1.413-0.748,3.695-1.292,5.408-1.292c3.271,0,5.247,1.857,5.247,4.763c0,3.654-3.229,5.67-7.145,5.67
			c-2.642,0-4.42-1.007-4.42-2.703c0-1.452,1.416-2.604,3.229-2.604c2.301,0,3.815,1.96,4.099,3.815
			c1.856-0.668,3.167-2.079,3.167-4.158c0-2.341-1.655-3.834-4.378-3.834c-3.128,0-6.255,1.432-7.549,2.705
			c-0.625,0.604-1.415,1.454-1.955,2.119l-0.769-0.767c1.938-2.06,7.953-7.833,10.693-10.414c-1.207,0.18-5.45,0.321-7.989,0.422
			c-0.039,0.122-0.223,0.263-0.384,0.303l-0.161-1.352c2.785-0.022,7.834-0.202,9.343-0.424l0.284-0.143l0.908,1.029
			c-0.12,0.103-0.284,0.164-0.463,0.202c-1.557,1.294-5.613,5.148-7.167,6.641V92.924z M816.313,101.119
			c0.669,0,1.414-0.102,2.019-0.262c-0.221-1.696-1.471-3.189-3.187-3.189c-1.169,0-2.242,0.623-2.242,1.673
			C812.902,100.673,814.76,101.119,816.313,101.119z"/>
		<path d="M832.431,99.747c0,1.554-1.271,2.823-2.825,2.823c-1.554,0-2.827-1.269-2.827-2.823s1.273-2.826,2.827-2.826
			C831.2,96.921,832.431,98.232,832.431,99.747z M831.745,99.747c0-1.194-0.95-2.14-2.14-2.14c-1.213,0-2.16,0.946-2.16,2.14
			c0,1.208,0.947,2.159,2.16,2.159C830.835,101.906,831.745,100.916,831.745,99.747z"/>
	</g>
</g>
</svg>
